Coordinates
version=1
nRows=27
nColumns=34
inDegrees=no

Units are S.I. units (second, meters, Newtons, ...)
If the header above contains a line with 'inDegrees', this indicates whether rotational values are in degrees (yes) or radians (no).

endheader
time	pelvis_tilt	pelvis_list	pelvis_rotation	pelvis_tx	pelvis_ty	pelvis_tz	hip_flexion_r	hip_adduction_r	hip_rotation_r	knee_angle_r	ankle_angle_r	subtalar_angle_r	mtp_angle_r	hip_flexion_l	hip_adduction_l	hip_rotation_l	knee_angle_l	ankle_angle_l	subtalar_angle_l	mtp_angle_l	lumbar_extension	lumbar_bending	lumbar_rotation	arm_flex_r	arm_add_r	arm_rot_r	elbow_flex_r	pro_sup_r	arm_flex_l	arm_add_l	arm_rot_l	elbow_flex_l	pro_sup_l
0	-0.00712174	-0.00417702	0.0452215	-0.210868	0.981376	-0.206565	0.412636	-0.00120538	-0.0798227	-0.0283972	0.053407	0.105757	-0.0180103	-0.226336	0.0304892	-0.0458304	0.203748	0.450236	0.252577	-0.0180258	-0.0520608	0.00766547	-0.130178	-0.243655	-0.15271	-0.0950196	0.467612	1.67955	0.187489	-0.305249	0.0991265	0.952907	1.57607
0.01	-0.00282271	-0.014078	0.0483338	-0.19437	0.989511	-0.205682	0.394824	0.0135953	-0.0702588	-0.0306271	0.0361309	0.0894926	-0.0180103	-0.238043	0.0166999	-0.0487121	0.221287	0.452241	0.248779	-0.0180258	-0.0529398	0.0200739	-0.131334	-0.245204	-0.153898	-0.0961596	0.46219	1.6798	0.179902	-0.301942	0.0989008	0.958068	1.57782
0.02	0.0017829	-0.0251842	0.0511495	-0.177929	0.996838	-0.204665	0.377003	0.0298396	-0.0604961	-0.0323274	0.0166657	0.070842	-0.0180103	-0.247424	0.000207498	-0.054466	0.243474	0.449245	0.247217	-0.0180258	-0.0539478	0.0335818	-0.13194	-0.246368	-0.155184	-0.096841	0.45724	1.67941	0.171513	-0.298269	0.0988124	0.961479	1.58003
0.03	0.00667401	-0.0374735	0.0536527	-0.161558	1.0034	-0.203515	0.359242	0.0474902	-0.0505422	-0.0334629	-0.00491872	0.0498645	-0.0180103	-0.254392	-0.0189671	-0.0630459	0.270366	0.441208	0.247854	-0.0180258	-0.0550527	0.0481598	-0.131982	-0.247138	-0.156568	-0.0970594	0.452768	1.67836	0.162332	-0.294231	0.0988678	0.963127	1.58271
0.04	0.0117455	-0.0508751	0.0558	-0.145285	1.00926	-0.202232	0.341753	0.0664359	-0.0404312	-0.0339159	-0.028379	0.0267356	-0.0180103	-0.258697	-0.0407546	-0.0742809	0.30212	0.428016	0.250545	-0.0180258	-0.0561707	0.0637237	-0.131426	-0.247493	-0.158045	-0.096804	0.448797	1.67666	0.152394	-0.289832	0.0990844	0.962977	1.5858
0.05	0.0167817	-0.065255	0.0575167	-0.129152	1.01444	-0.20082	0.324933	0.0864657	-0.0302544	-0.0334562	-0.0531973	0.00180141	-0.0180103	-0.259885	-0.0649997	-0.0877867	0.338985	0.409466	0.254953	-0.0180258	-0.0571539	0.0801162	-0.130219	-0.247394	-0.159614	-0.0960612	0.445371	1.67433	0.141768	-0.285078	0.0994907	0.960982	1.58926
0.06	0.0214601	-0.0804072	0.0587052	-0.113222	1.01898	-0.199284	0.309353	0.107261	-0.0201974	-0.0317435	-0.0785228	-0.0243693	-0.0180104	-0.25732	-0.0914213	-0.102892	0.381232	0.385271	0.260472	-0.0180258	-0.0577969	0.0971016	-0.128297	-0.246783	-0.16127	-0.094825	0.442561	1.6714	0.130565	-0.279979	0.100123	0.957088	1.59295
0.07	0.0253883	-0.0960528	0.0592698	-0.0975641	1.02292	-0.197635	0.295659	0.128409	-0.0105646	-0.0283739	-0.103189	-0.050947	-0.0180104	-0.250273	-0.119577	-0.118608	0.429042	0.355097	0.266185	-0.0180258	-0.0578645	0.114372	-0.125607	-0.245595	-0.16301	-0.0931092	0.440453	1.66799	0.118935	-0.274553	0.101018	0.951259	1.59673
0.08	0.0281711	-0.111851	0.059154	-0.0822462	1.0263	-0.195894	0.284404	0.149433	-0.00177399	-0.0229715	-0.125819	-0.0768371	-0.0180104	-0.238039	-0.148848	-0.133663	0.482382	0.318636	0.270884	-0.0180258	-0.0571283	0.131562	-0.122144	-0.243765	-0.164828	-0.0909596	0.439145	1.66426	0.10705	-0.268822	0.10221	0.943493	1.60035
0.09	0.0294954	-0.127422	0.0583764	-0.0673242	1.02917	-0.194093	0.2759	0.169832	0.00567508	-0.0153135	-0.145001	-0.100745	-0.0180104	-0.220085	-0.178453	-0.146616	0.540914	0.27572	0.273182	-0.0180258	-0.0554321	0.148272	-0.117972	-0.241236	-0.166716	-0.0884573	0.438734	1.66051	0.0950933	-0.262817	0.103719	0.933833	1.60357
0.1	0.0292173	-0.142393	0.0570553	-0.0528345	1.03156	-0.192277	0.270117	0.189133	0.0112753	-0.00546264	-0.159502	-0.121334	-0.0180104	-0.196172	-0.207514	-0.156044	0.603952	0.226481	0.2717	-0.0180258	-0.0527463	0.164113	-0.113238	-0.23796	-0.168662	-0.0857134	0.439307	1.65708	0.0832446	-0.256584	0.10556	0.922373	1.60612
0.11	0.0274455	-0.156431	0.0554065	-0.038789	1.03356	-0.190493	0.266676	0.206961	0.0146348	0.00613933	-0.168507	-0.137501	-0.0180104	-0.166392	-0.235184	-0.160777	0.670511	0.171529	0.265316	-0.0180258	-0.0491654	0.178775	-0.108174	-0.233906	-0.170654	-0.0828554	0.440941	1.65437	0.0716642	-0.25018	0.107739	0.909251	1.60777
0.12	0.024415	-0.169288	0.0537356	-0.0251813	1.03522	-0.188786	0.264886	0.223082	0.0155795	0.0187032	-0.171763	-0.14859	-0.0180104	-0.13118	-0.260746	-0.160078	0.739405	0.112122	0.253355	-0.0180258	-0.0449186	0.192053	-0.103076	-0.229066	-0.172684	-0.0800002	0.443694	1.65274	0.0604797	-0.243673	0.110264	0.894633	1.60838
0.13	0.0204674	-0.180836	0.0523926	-0.0119875	1.03662	-0.187192	0.263861	0.23739	0.0141662	0.031224	-0.169568	-0.154427	-0.0180104	-0.0912646	-0.283646	-0.153734	0.809333	0.0502444	0.235646	-0.0180258	-0.0403257	0.203831	-0.0982501	-0.223452	-0.174743	-0.0772232	0.447602	1.65242	0.0497769	-0.237141	0.113148	0.87869	1.6079
0.14	0.016017	-0.191028	0.0517015	0.000830142	1.03782	-0.185741	0.262658	0.249889	0.0106372	0.0426632	-0.162644	-0.155234	-0.0180104	-0.0476048	-0.303506	-0.142057	0.878971	-0.0114262	0.212492	-0.0180258	-0.03575	0.214065	-0.0939608	-0.217095	-0.17683	-0.0745302	0.452665	1.6535	0.0396006	-0.230668	0.116417	0.861587	1.60639
0.15	0.0115013	-0.199867	0.0518943	0.0133183	1.03889	-0.184444	0.260402	0.26065	0.00535383	0.0521251	-0.151957	-0.151476	-0.0180104	-0.00130646	-0.320108	-0.125812	0.947053	-0.0696964	0.184565	-0.0180258	-0.0315534	0.222757	-0.0903746	-0.210034	-0.178948	-0.0718423	0.458844	1.65588	0.0299605	-0.224341	0.120119	0.843463	1.60396
0.16	0.00732758	-0.207378	0.0530603	0.0255265	1.03989	-0.183302	0.256385	0.269781	-0.00126288	0.0589896	-0.138531	-0.143723	-0.0180104	0.0464663	-0.333368	-0.106091	1.01243	-0.121175	0.152789	-0.0180258	-0.0280601	0.229923	-0.0875196	-0.202319	-0.181109	-0.0689982	0.466056	1.65925	0.0208399	-0.218237	0.124319	0.824421	1.60072
0.17	0.00382517	-0.21359	0.0551219	0.0375047	1.04087	-0.182301	0.250131	0.277391	-0.00877265	0.0629769	-0.123301	-0.132552	-0.0180104	0.0945783	-0.343304	-0.084178	1.0741	-0.162694	0.118227	-0.0180259	-0.0255259	0.235581	-0.0852693	-0.194002	-0.183329	-0.065778	0.474176	1.6632	0.0122051	-0.212427	0.1291	0.804532	1.59683
0.18	0.00121078	-0.218523	0.0578409	0.0492984	1.04189	-0.181419	0.241419	0.283582	-0.016735	0.0641469	-0.107023	-0.1185	-0.0180104	0.142001	-0.350017	-0.0614026	1.13121	-0.191768	0.081985	-0.0180259	-0.0241168	0.239736	-0.0833537	-0.185139	-0.185625	-0.0619436	0.48304	1.66727	0.00401202	-0.206966	0.134547	0.783842	1.59242
0.19	-0.00043898	-0.222184	0.060855	0.0609479	1.04295	-0.180623	0.230273	0.288434	-0.0247156	0.0628432	-0.0902518	-0.102064	-0.0180105	0.187866	-0.353673	-0.0390174	1.18308	-0.206985	0.0451401	-0.0180259	-0.0239012	0.242384	-0.0813948	-0.175788	-0.188013	-0.0572887	0.492466	1.671	-0.00379119	-0.20189	0.140728	0.762393	1.5876
0.2	-0.00126621	-0.224515	0.0637526	0.072489	1.04405	-0.179886	0.2169	0.292022	-0.0322903	0.0596103	-0.0733486	-0.0837265	-0.0180105	0.231485	-0.354506	-0.0181017	1.22915	-0.208255	0.00867793	-0.0180259	-0.0248799	0.243544	-0.078957	-0.166014	-0.190505	-0.0516861	0.502269	1.67408	-0.0112653	-0.197221	0.147679	0.740249	1.5825
0.21	-0.00140463	-0.225489	0.0660696	0.083952	1.0452	-0.17917	0.201677	0.294394	-0.039057	0.0550718	-0.0565234	-0.0639734	-0.0180105	0.27239	-0.352794	0.000485411	1.26895	-0.196843	-0.0265613	-0.0180259	-0.0269284	0.243228	-0.0756134	-0.155887	-0.193099	-0.0451204	0.512289	1.67635	-0.0184842	-0.192964	0.155383	0.717526	1.57725
0.22	-0.00104263	-0.225117	0.0673806	0.095359	1.04638	-0.178446	0.185062	0.295579	-0.044658	0.0498424	-0.0398782	-0.0432987	-0.0180105	0.310299	-0.34885	0.016125	1.30212	-0.175172	-0.0599233	-0.0180259	-0.0298587	0.241455	-0.0709929	-0.145483	-0.195788	-0.0377005	0.522406	1.6778	-0.0255414	-0.189107	0.163758	0.694412	1.57198
0.23	-0.000388501	-0.223433	0.0673451	0.106727	1.04759	-0.177689	0.167512	0.295598	-0.0488114	0.0444528	-0.0234458	-0.0221776	-0.0180105	0.345071	-0.343022	0.0284322	1.32838	-0.146427	-0.0909559	-0.0180259	-0.0334583	0.238271	-0.0648211	-0.134878	-0.198553	-0.0296485	0.532556	1.67858	-0.032552	-0.18563	0.172653	0.671176	1.56682
0.24	0.000366183	-0.220497	0.0657378	0.11807	1.0488	-0.176882	0.149434	0.294477	-0.0513523	0.0393048	-0.00721325	-0.00101358	-0.0180105	0.376671	-0.335682	0.0372318	1.34755	-0.114047	-0.11939	-0.0180259	-0.037523	0.233753	-0.0569442	-0.124143	-0.201374	-0.0212691	0.542729	1.67895	-0.0396516	-0.182497	0.181851	0.648167	1.56191
0.25	0.00107715	-0.216405	0.0624597	0.1294	1.05001	-0.176022	0.131146	0.292249	-0.0522711	0.0346565	0.00886603	0.0199264	-0.0180105	0.405135	-0.327216	0.0425283	1.35959	-0.081206	-0.145083	-0.0180259	-0.0418815	0.228018	-0.0473355	-0.113341	-0.204228	-0.0129081	0.552955	1.67918	-0.046988	-0.179665	0.191086	0.625785	1.55738
0.26	0.0016623	-0.211285	0.0575328	0.140722	1.05118	-0.175109	0.112873	0.288963	-0.0517323	0.0306356	0.0248638	0.0405597	-0.0180105	0.430549	-0.318011	0.0444761	1.36455	-0.0503995	-0.167946	-0.0180259	-0.0464062	0.221228	-0.036088	-0.102518	-0.2071	-0.00490525	0.563287	1.67956	-0.0547104	-0.177082	0.200064	0.604453	1.55332
